<svg xmlns="http://www.w3.org/2000/svg" xmlns:xlink="http://www.w3.org/1999/xlink" width="500" zoomAndPan="magnify" viewBox="0 0 375 374.999991" height="500" preserveAspectRatio="xMidYMid meet" version="1.0"><defs><g/><clipPath id="d6efb9a2b2"><path d="M 18.753906 110.863281 L 160.5 110.863281 L 160.5 188.792969 L 18.753906 188.792969 Z M 18.753906 110.863281 " clip-rule="nonzero"/></clipPath><clipPath id="6510f1131b"><path d="M 42.390625 187.335938 L 136 187.335938 L 136 289.335938 L 42.390625 289.335938 Z M 42.390625 187.335938 " clip-rule="nonzero"/></clipPath><clipPath id="fd6966be5a"><path d="M 78.335938 85.316406 L 134.585938 85.316406 L 134.585938 113.066406 L 78.335938 113.066406 Z M 78.335938 85.316406 " clip-rule="nonzero"/></clipPath></defs><g clip-path="url(#d6efb9a2b2)"><path fill="#5789b0" d="M 89.628906 185.730469 L 22.167969 185.730469 L 33.289062 129.800781 L 36.992188 129.800781 L 28.003906 179.636719 C 27.925781 180.070312 28.035156 180.515625 28.308594 180.859375 C 28.582031 181.203125 28.992188 181.414062 29.429688 181.441406 L 89.527344 184.839844 C 89.554688 184.839844 89.582031 184.84375 89.605469 184.84375 C 89.609375 184.84375 89.613281 184.84375 89.617188 184.84375 C 89.621094 184.84375 89.625 184.84375 89.625 184.84375 C 89.625 184.84375 89.628906 184.84375 89.628906 184.84375 C 89.636719 184.84375 89.644531 184.84375 89.652344 184.84375 C 89.671875 184.84375 89.695312 184.839844 89.714844 184.839844 C 89.796875 184.835938 149.824219 181.441406 149.824219 181.441406 C 150.265625 181.414062 150.675781 181.203125 150.945312 180.859375 C 151.21875 180.515625 151.332031 180.070312 151.253906 179.636719 L 142.261719 129.800781 L 145.96875 129.800781 L 157.089844 185.730469 Z M 41.84375 120.261719 C 42.960938 120.6875 44.632812 121.25 47.050781 121.894531 L 40.796875 158.875 C 40.722656 159.320312 40.847656 159.777344 41.140625 160.121094 C 41.429688 160.464844 41.859375 160.664062 42.3125 160.664062 C 47.097656 160.671875 53.855469 161.003906 58.871094 162.542969 C 74.386719 167.308594 82.996094 176.207031 87.769531 181.371094 L 32.820312 170.265625 Z M 63.480469 115.511719 C 76.800781 119.601562 84.097656 127.308594 88.089844 131.636719 L 88.089844 177.226562 C 82.828125 171.765625 74.148438 164.027344 59.777344 159.613281 C 55.023438 158.15625 48.933594 157.707031 44.132812 157.617188 L 51.515625 113.945312 C 56.347656 114.03125 60.367188 114.558594 63.480469 115.511719 Z M 115.777344 115.511719 C 118.890625 114.558594 122.90625 114.03125 127.738281 113.945312 L 135.121094 157.617188 C 130.324219 157.707031 124.234375 158.15625 119.476562 159.613281 C 105.109375 164.027344 96.429688 171.765625 91.167969 177.226562 L 91.167969 131.636719 C 95.15625 127.308594 102.453125 119.601562 115.777344 115.511719 Z M 32.277344 173.285156 L 68.328125 180.570312 L 31.339844 178.476562 Z M 147.917969 178.476562 L 110.925781 180.570312 L 146.980469 173.285156 Z M 137.414062 120.261719 L 146.433594 170.265625 L 91.484375 181.371094 C 96.257812 176.207031 104.871094 167.308594 120.382812 162.542969 C 125.398438 161.003906 132.15625 160.671875 136.941406 160.664062 C 137.394531 160.664062 137.824219 160.464844 138.117188 160.121094 C 138.410156 159.777344 138.535156 159.320312 138.457031 158.875 L 132.207031 121.894531 C 134.621094 121.25 136.296875 120.6875 137.414062 120.261719 Z M 148.742188 127.972656 C 148.597656 127.253906 147.96875 126.738281 147.230469 126.738281 L 141.710938 126.738281 L 140.097656 117.789062 C 140.003906 117.285156 139.679688 116.847656 139.207031 116.644531 C 138.734375 116.441406 138.210938 116.476562 137.78125 116.753906 C 137.65625 116.820312 136.109375 117.660156 131.691406 118.859375 L 130.554688 112.144531 C 130.429688 111.40625 129.789062 110.867188 129.039062 110.867188 C 129.039062 110.867188 129.035156 110.867188 129.035156 110.867188 C 123.234375 110.875 118.601562 111.4375 114.871094 112.582031 C 101.535156 116.675781 93.957031 124.136719 89.628906 128.777344 C 85.300781 124.136719 77.722656 116.675781 64.386719 112.582031 C 60.65625 111.4375 56.023438 110.875 50.21875 110.867188 C 49.464844 110.867188 48.824219 111.40625 48.699219 112.144531 L 47.566406 118.859375 C 43.148438 117.660156 41.597656 116.820312 41.476562 116.753906 C 41.046875 116.476562 40.519531 116.441406 40.050781 116.644531 C 39.574219 116.847656 39.25 117.285156 39.160156 117.789062 L 37.546875 126.738281 L 32.023438 126.738281 C 31.289062 126.738281 30.65625 127.253906 30.515625 127.972656 L 18.785156 186.964844 C 18.695312 187.414062 18.8125 187.878906 19.105469 188.234375 C 19.398438 188.589844 19.832031 188.792969 20.292969 188.792969 L 158.960938 188.792969 C 159.421875 188.792969 159.859375 188.589844 160.152344 188.234375 C 160.445312 187.878906 160.5625 187.414062 160.472656 186.964844 L 148.742188 127.972656 " fill-opacity="1" fill-rule="nonzero"/></g><g clip-path="url(#6510f1131b)"><path fill="#5789b0" d="M 127.203125 161.886719 L 135.878906 125.78125 L 135.878906 114.019531 L 107.375 114.019531 L 107.375 89.394531 L 86.855469 78.328125 C 86.996094 77.5 87.132812 76.808594 87.132812 75.976562 C 87.132812 70.167969 82.449219 65.601562 76.804688 65.601562 C 71.160156 65.601562 66.476562 70.304688 66.476562 75.976562 C 66.476562 81.648438 71.160156 86.351562 76.804688 86.351562 C 80.246094 86.351562 83.277344 84.691406 85.203125 82.0625 L 103.242188 91.886719 L 103.242188 113.882812 L 42.65625 113.882812 L 42.65625 125.226562 L 51.332031 161.886719 L 67.441406 161.886719 L 67.441406 262.460938 L 44.722656 262.460938 L 44.722656 289.851562 L 133.8125 289.851562 L 133.8125 262.460938 L 111.089844 262.460938 L 111.089844 161.886719 Z M 76.804688 82.203125 C 73.363281 82.203125 70.609375 79.433594 70.609375 75.976562 C 70.609375 72.519531 73.363281 69.75 76.804688 69.75 C 80.246094 69.75 83 72.519531 83 75.976562 C 83 79.433594 80.246094 82.203125 76.804688 82.203125 Z M 54.636719 157.734375 L 46.785156 124.949219 L 46.785156 118.03125 L 131.609375 118.03125 L 131.609375 124.949219 L 123.761719 157.734375 L 110.953125 157.734375 L 110.953125 140.71875 L 67.441406 140.71875 L 67.441406 157.734375 Z M 129.679688 266.609375 L 129.679688 285.703125 L 48.851562 285.703125 L 48.851562 266.609375 Z M 71.570312 262.460938 L 71.570312 144.871094 L 106.960938 144.871094 L 106.960938 262.460938 Z M 71.570312 262.460938 " fill-opacity="1" fill-rule="nonzero"/></g><g clip-path="url(#fd6966be5a)"><path fill="#5789b0" d="M 129.222656 143.277344 L 134.429688 121.542969 L 134.429688 114.464844 L 117.324219 114.464844 L 117.324219 99.640625 L 105.015625 92.976562 C 105.097656 92.476562 105.179688 92.0625 105.179688 91.5625 C 105.179688 88.0625 102.371094 85.316406 98.984375 85.316406 C 95.59375 85.316406 92.785156 88.148438 92.785156 91.5625 C 92.785156 94.976562 95.59375 97.808594 98.984375 97.808594 C 101.046875 97.808594 102.867188 96.808594 104.023438 95.226562 L 114.847656 101.136719 L 114.847656 114.378906 L 78.492188 114.378906 L 78.492188 121.210938 L 83.695312 143.277344 L 93.363281 143.277344 L 93.363281 203.824219 L 79.730469 203.824219 L 79.730469 220.316406 L 133.1875 220.316406 L 133.1875 203.824219 L 119.554688 203.824219 L 119.554688 143.277344 Z M 98.984375 95.308594 C 96.917969 95.308594 95.265625 93.644531 95.265625 91.5625 C 95.265625 89.480469 96.917969 87.8125 98.984375 87.8125 C 101.046875 87.8125 102.699219 89.480469 102.699219 91.5625 C 102.699219 93.644531 101.046875 95.308594 98.984375 95.308594 Z M 85.679688 140.78125 L 80.96875 121.042969 L 80.96875 116.878906 L 131.867188 116.878906 L 131.867188 121.042969 L 127.15625 140.78125 L 119.472656 140.78125 L 119.472656 130.539062 L 93.363281 130.539062 L 93.363281 140.78125 Z M 130.710938 206.324219 L 130.710938 217.816406 L 82.210938 217.816406 L 82.210938 206.324219 Z M 95.84375 203.824219 L 95.84375 133.035156 L 117.078125 133.035156 L 117.078125 203.824219 Z M 95.84375 203.824219 " fill-opacity="1" fill-rule="nonzero"/></g><g fill="#2e4b68" fill-opacity="1"><g transform="translate(120.378131, 220.488665)"><g><path d="M 10.9375 -18.140625 L 10.9375 -5.59375 C 10.9375 -3.78125 10.4375 -2.375 9.4375 -1.375 C 8.4375 -0.375 7.050781 0.125 5.28125 0.125 C 3.144531 0.125 1.367188 -0.742188 -0.046875 -2.484375 L 1.40625 -4.828125 C 2.625 -3.492188 3.910156 -2.828125 5.265625 -2.828125 C 6.085938 -2.828125 6.722656 -3.070312 7.171875 -3.5625 C 7.628906 -4.050781 7.859375 -4.765625 7.859375 -5.703125 L 7.859375 -15.390625 L 1.578125 -15.390625 L 1.578125 -18.140625 Z M 10.9375 -18.140625 "/></g></g></g><g fill="#2e4b68" fill-opacity="1"><g transform="translate(134.473839, 220.488665)"><g><path d="M 17.8125 -18.140625 L 17.8125 -7.515625 C 17.8125 -5.148438 17.109375 -3.285156 15.703125 -1.921875 C 14.304688 -0.554688 12.378906 0.125 9.921875 0.125 C 7.472656 0.125 5.539062 -0.554688 4.125 -1.921875 C 2.71875 -3.285156 2.015625 -5.148438 2.015625 -7.515625 L 2.015625 -18.140625 L 5.078125 -18.140625 L 5.078125 -7.515625 C 5.078125 -5.992188 5.515625 -4.796875 6.390625 -3.921875 C 7.265625 -3.054688 8.453125 -2.625 9.953125 -2.625 C 11.441406 -2.625 12.613281 -3.050781 13.46875 -3.90625 C 14.320312 -4.769531 14.75 -5.972656 14.75 -7.515625 L 14.75 -18.140625 Z M 17.8125 -18.140625 "/></g></g></g><g fill="#2e4b68" fill-opacity="1"><g transform="translate(155.435751, 220.488665)"><g><path d="M 18.125 0 L 15.109375 0 L 5.4375 -13.015625 L 5.4375 0 L 2.390625 0 L 2.390625 -18.140625 L 5.390625 -18.140625 L 15.109375 -5.109375 L 15.109375 -18.140625 L 18.125 -18.140625 Z M 18.125 0 "/></g></g></g><g fill="#2e4b68" fill-opacity="1"><g transform="translate(177.123147, 220.488665)"><g><path d="M 14.796875 -8.921875 L 17.46875 -8.921875 L 17.46875 -2.234375 C 16.539062 -1.523438 15.441406 -0.953125 14.171875 -0.515625 C 12.898438 -0.0859375 11.648438 0.125 10.421875 0.125 C 7.742188 0.125 5.484375 -0.757812 3.640625 -2.53125 C 1.796875 -4.300781 0.875 -6.476562 0.875 -9.0625 C 0.875 -11.65625 1.804688 -13.828125 3.671875 -15.578125 C 5.546875 -17.335938 7.859375 -18.21875 10.609375 -18.21875 C 11.878906 -18.21875 13.132812 -17.988281 14.375 -17.53125 C 15.613281 -17.070312 16.679688 -16.457031 17.578125 -15.6875 L 15.84375 -13.421875 C 14.351562 -14.804688 12.609375 -15.5 10.609375 -15.5 C 8.753906 -15.5 7.1875 -14.875 5.90625 -13.625 C 4.625 -12.382812 3.984375 -10.867188 3.984375 -9.078125 C 3.984375 -7.253906 4.628906 -5.722656 5.921875 -4.484375 C 7.210938 -3.242188 8.78125 -2.625 10.625 -2.625 C 12.03125 -2.625 13.421875 -3.035156 14.796875 -3.859375 Z M 14.796875 -8.921875 "/></g></g></g><g fill="#2e4b68" fill-opacity="1"><g transform="translate(197.696402, 220.488665)"><g><path d="M 2.390625 -18.140625 L 9.609375 -18.140625 C 11.890625 -18.140625 13.65625 -17.597656 14.90625 -16.515625 C 16.164062 -15.441406 16.796875 -13.921875 16.796875 -11.953125 C 16.796875 -9.890625 16.164062 -8.289062 14.90625 -7.15625 C 13.65625 -6.03125 11.890625 -5.46875 9.609375 -5.46875 L 5.4375 -5.46875 L 5.4375 0 L 2.390625 0 Z M 5.4375 -15.390625 L 5.4375 -8.21875 L 9.484375 -8.21875 C 12.410156 -8.21875 13.875 -9.4375 13.875 -11.875 C 13.875 -14.21875 12.410156 -15.390625 9.484375 -15.390625 Z M 5.4375 -15.390625 "/></g></g></g><g fill="#2e4b68" fill-opacity="1"><g transform="translate(216.300475, 220.488665)"><g><path d="M 13.890625 0 L 10.578125 -5.5 C 10.398438 -5.476562 10.125 -5.46875 9.75 -5.46875 L 5.4375 -5.46875 L 5.4375 0 L 2.390625 0 L 2.390625 -18.140625 L 9.75 -18.140625 C 12.0625 -18.140625 13.859375 -17.597656 15.140625 -16.515625 C 16.421875 -15.441406 17.0625 -13.921875 17.0625 -11.953125 C 17.0625 -10.492188 16.734375 -9.265625 16.078125 -8.265625 C 15.429688 -7.265625 14.503906 -6.53125 13.296875 -6.0625 L 17.375 0 Z M 5.4375 -8.21875 L 9.75 -8.21875 C 12.6875 -8.21875 14.15625 -9.4375 14.15625 -11.875 C 14.15625 -14.21875 12.6875 -15.390625 9.75 -15.390625 L 5.4375 -15.390625 Z M 5.4375 -8.21875 "/></g></g></g><g fill="#2e4b68" fill-opacity="1"><g transform="translate(236.20006, 220.488665)"><g><path d="M 15.34375 -15.390625 L 5.4375 -15.390625 L 5.4375 -10.5 L 14.3125 -10.5 L 14.3125 -7.75 L 5.4375 -7.75 L 5.4375 -2.75 L 15.65625 -2.75 L 15.65625 0 L 2.390625 0 L 2.390625 -18.140625 L 15.34375 -18.140625 Z M 15.34375 -15.390625 "/></g></g></g><g fill="#2e4b68" fill-opacity="1"><g transform="translate(254.363667, 220.488665)"><g><path d="M 2.390625 -18.140625 L 9.828125 -18.140625 C 12.535156 -18.140625 14.773438 -17.285156 16.546875 -15.578125 C 18.316406 -13.867188 19.203125 -11.695312 19.203125 -9.0625 C 19.203125 -6.4375 18.3125 -4.269531 16.53125 -2.5625 C 14.757812 -0.851562 12.5 0 9.75 0 L 2.390625 0 Z M 5.4375 -15.390625 L 5.4375 -2.75 L 9.90625 -2.75 C 11.6875 -2.75 13.164062 -3.335938 14.34375 -4.515625 C 15.53125 -5.703125 16.125 -7.210938 16.125 -9.046875 C 16.125 -10.878906 15.515625 -12.394531 14.296875 -13.59375 C 13.078125 -14.789062 11.566406 -15.390625 9.765625 -15.390625 Z M 5.4375 -15.390625 "/></g></g></g><g fill="#2e4b68" fill-opacity="1"><g transform="translate(275.61059, 220.488665)"><g><path d="M 5.4375 0 L 2.390625 0 L 2.390625 -18.140625 L 5.4375 -18.140625 Z M 5.4375 0 "/></g></g></g><g fill="#2e4b68" fill-opacity="1"><g transform="translate(284.601983, 220.488665)"><g><path d="M 14.796875 -8.921875 L 17.46875 -8.921875 L 17.46875 -2.234375 C 16.539062 -1.523438 15.441406 -0.953125 14.171875 -0.515625 C 12.898438 -0.0859375 11.648438 0.125 10.421875 0.125 C 7.742188 0.125 5.484375 -0.757812 3.640625 -2.53125 C 1.796875 -4.300781 0.875 -6.476562 0.875 -9.0625 C 0.875 -11.65625 1.804688 -13.828125 3.671875 -15.578125 C 5.546875 -17.335938 7.859375 -18.21875 10.609375 -18.21875 C 11.878906 -18.21875 13.132812 -17.988281 14.375 -17.53125 C 15.613281 -17.070312 16.679688 -16.457031 17.578125 -15.6875 L 15.84375 -13.421875 C 14.351562 -14.804688 12.609375 -15.5 10.609375 -15.5 C 8.753906 -15.5 7.1875 -14.875 5.90625 -13.625 C 4.625 -12.382812 3.984375 -10.867188 3.984375 -9.078125 C 3.984375 -7.253906 4.628906 -5.722656 5.921875 -4.484375 C 7.210938 -3.242188 8.78125 -2.625 10.625 -2.625 C 12.03125 -2.625 13.421875 -3.035156 14.796875 -3.859375 Z M 14.796875 -8.921875 "/></g></g></g><g fill="#2e4b68" fill-opacity="1"><g transform="translate(305.175238, 220.488665)"><g><path d="M 15.34375 -15.390625 L 5.4375 -15.390625 L 5.4375 -10.5 L 14.3125 -10.5 L 14.3125 -7.75 L 5.4375 -7.75 L 5.4375 -2.75 L 15.65625 -2.75 L 15.65625 0 L 2.390625 0 L 2.390625 -18.140625 L 15.34375 -18.140625 Z M 15.34375 -15.390625 "/></g></g></g><g fill="#2e4b68" fill-opacity="1"><g transform="translate(323.338844, 220.488665)"><g><path d="M 13.890625 0 L 10.578125 -5.5 C 10.398438 -5.476562 10.125 -5.46875 9.75 -5.46875 L 5.4375 -5.46875 L 5.4375 0 L 2.390625 0 L 2.390625 -18.140625 L 9.75 -18.140625 C 12.0625 -18.140625 13.859375 -17.597656 15.140625 -16.515625 C 16.421875 -15.441406 17.0625 -13.921875 17.0625 -11.953125 C 17.0625 -10.492188 16.734375 -9.265625 16.078125 -8.265625 C 15.429688 -7.265625 14.503906 -6.53125 13.296875 -6.0625 L 17.375 0 Z M 5.4375 -8.21875 L 9.75 -8.21875 C 12.6875 -8.21875 14.15625 -9.4375 14.15625 -11.875 C 14.15625 -14.21875 12.6875 -15.390625 9.75 -15.390625 L 5.4375 -15.390625 Z M 5.4375 -8.21875 "/></g></g></g><g fill="#2e4b68" fill-opacity="1"><g transform="translate(120.378131, 250.907285)"><g><path d="M 21.046875 0 L 17.90625 0 L 13.609375 -14.15625 L 9.25 0 L 6.09375 0 L 0.078125 -18.140625 L 3.375 -18.140625 L 7.78125 -3.390625 L 12.15625 -18.125 L 15.171875 -18.140625 L 19.578125 -3.390625 L 23.953125 -18.140625 L 27.109375 -18.140625 Z M 21.046875 0 "/></g></g></g><g fill="#2e4b68" fill-opacity="1"><g transform="translate(148.387623, 250.907285)"><g><path d="M 3.640625 -15.578125 C 5.492188 -17.335938 7.773438 -18.21875 10.484375 -18.21875 C 13.203125 -18.21875 15.484375 -17.335938 17.328125 -15.578125 C 19.179688 -13.828125 20.109375 -11.65625 20.109375 -9.0625 C 20.109375 -6.476562 19.179688 -4.300781 17.328125 -2.53125 C 15.484375 -0.757812 13.203125 0.125 10.484375 0.125 C 7.773438 0.125 5.492188 -0.757812 3.640625 -2.53125 C 1.796875 -4.300781 0.875 -6.476562 0.875 -9.0625 C 0.875 -11.65625 1.796875 -13.828125 3.640625 -15.578125 Z M 10.53125 -15.46875 C 8.726562 -15.46875 7.1875 -14.847656 5.90625 -13.609375 C 4.625 -12.378906 3.984375 -10.863281 3.984375 -9.0625 C 3.984375 -7.269531 4.628906 -5.75 5.921875 -4.5 C 7.210938 -3.25 8.742188 -2.625 10.515625 -2.625 C 12.296875 -2.625 13.816406 -3.25 15.078125 -4.5 C 16.347656 -5.75 16.984375 -7.269531 16.984375 -9.0625 C 16.984375 -10.863281 16.347656 -12.378906 15.078125 -13.609375 C 13.816406 -14.847656 12.300781 -15.46875 10.53125 -15.46875 Z M 10.53125 -15.46875 "/></g></g></g><g fill="#2e4b68" fill-opacity="1"><g transform="translate(170.541396, 250.907285)"><g><path d="M 13.890625 0 L 10.578125 -5.5 C 10.398438 -5.476562 10.125 -5.46875 9.75 -5.46875 L 5.4375 -5.46875 L 5.4375 0 L 2.390625 0 L 2.390625 -18.140625 L 9.75 -18.140625 C 12.0625 -18.140625 13.859375 -17.597656 15.140625 -16.515625 C 16.421875 -15.441406 17.0625 -13.921875 17.0625 -11.953125 C 17.0625 -10.492188 16.734375 -9.265625 16.078125 -8.265625 C 15.429688 -7.265625 14.503906 -6.53125 13.296875 -6.0625 L 17.375 0 Z M 5.4375 -8.21875 L 9.75 -8.21875 C 12.6875 -8.21875 14.15625 -9.4375 14.15625 -11.875 C 14.15625 -14.21875 12.6875 -15.390625 9.75 -15.390625 L 5.4375 -15.390625 Z M 5.4375 -8.21875 "/></g></g></g><g fill="#2e4b68" fill-opacity="1"><g transform="translate(190.440988, 250.907285)"><g><path d="M 14.484375 0 L 8.53125 -8.015625 L 5.4375 -4.609375 L 5.4375 0 L 2.390625 0 L 2.390625 -18.140625 L 5.4375 -18.140625 L 5.4375 -8.765625 L 14.09375 -18.140625 L 17.703125 -18.140625 L 10.6875 -10.390625 L 18.171875 0 Z M 14.484375 0 "/></g></g></g><g fill="#2e4b68" fill-opacity="1"><g transform="translate(210.211022, 250.907285)"><g><path d="M 8.34375 -18.28125 C 10.695312 -18.28125 12.816406 -17.65625 14.703125 -16.40625 L 13.421875 -13.71875 C 11.578125 -14.832031 9.804688 -15.390625 8.109375 -15.390625 C 7.191406 -15.390625 6.46875 -15.222656 5.9375 -14.890625 C 5.414062 -14.566406 5.15625 -14.101562 5.15625 -13.5 C 5.15625 -12.894531 5.394531 -12.378906 5.875 -11.953125 C 6.363281 -11.535156 6.96875 -11.226562 7.6875 -11.03125 C 8.414062 -10.832031 9.203125 -10.582031 10.046875 -10.28125 C 10.898438 -9.976562 11.6875 -9.65625 12.40625 -9.3125 C 13.132812 -8.976562 13.738281 -8.453125 14.21875 -7.734375 C 14.695312 -7.015625 14.9375 -6.144531 14.9375 -5.125 C 14.9375 -3.539062 14.300781 -2.269531 13.03125 -1.3125 C 11.757812 -0.363281 10.113281 0.109375 8.09375 0.109375 C 6.707031 0.109375 5.363281 -0.148438 4.0625 -0.671875 C 2.769531 -1.191406 1.640625 -1.894531 0.671875 -2.78125 L 2 -5.421875 C 2.914062 -4.566406 3.921875 -3.910156 5.015625 -3.453125 C 6.109375 -3.003906 7.148438 -2.78125 8.140625 -2.78125 C 9.210938 -2.78125 10.046875 -2.972656 10.640625 -3.359375 C 11.234375 -3.742188 11.53125 -4.285156 11.53125 -4.984375 C 11.53125 -5.597656 11.285156 -6.117188 10.796875 -6.546875 C 10.316406 -6.972656 9.710938 -7.285156 8.984375 -7.484375 C 8.265625 -7.679688 7.476562 -7.921875 6.625 -8.203125 C 5.78125 -8.484375 4.992188 -8.785156 4.265625 -9.109375 C 3.546875 -9.429688 2.941406 -9.945312 2.453125 -10.65625 C 1.972656 -11.363281 1.734375 -12.21875 1.734375 -13.21875 C 1.734375 -14.757812 2.335938 -15.988281 3.546875 -16.90625 C 4.753906 -17.820312 6.351562 -18.28125 8.34375 -18.28125 Z M 8.34375 -18.28125 "/></g></g></g><g fill="#2e4b68" fill-opacity="1"><g transform="translate(227.493683, 250.907285)"><g><path d="M 18.125 0 L 15.0625 0 L 15.0625 -7.515625 L 5.4375 -7.515625 L 5.4375 0 L 2.390625 0 L 2.390625 -18.140625 L 5.4375 -18.140625 L 5.4375 -10.265625 L 15.0625 -10.265625 L 15.0625 -18.140625 L 18.125 -18.140625 Z M 18.125 0 "/></g></g></g><g fill="#2e4b68" fill-opacity="1"><g transform="translate(249.15516, 250.907285)"><g><path d="M 3.640625 -15.578125 C 5.492188 -17.335938 7.773438 -18.21875 10.484375 -18.21875 C 13.203125 -18.21875 15.484375 -17.335938 17.328125 -15.578125 C 19.179688 -13.828125 20.109375 -11.65625 20.109375 -9.0625 C 20.109375 -6.476562 19.179688 -4.300781 17.328125 -2.53125 C 15.484375 -0.757812 13.203125 0.125 10.484375 0.125 C 7.773438 0.125 5.492188 -0.757812 3.640625 -2.53125 C 1.796875 -4.300781 0.875 -6.476562 0.875 -9.0625 C 0.875 -11.65625 1.796875 -13.828125 3.640625 -15.578125 Z M 10.53125 -15.46875 C 8.726562 -15.46875 7.1875 -14.847656 5.90625 -13.609375 C 4.625 -12.378906 3.984375 -10.863281 3.984375 -9.0625 C 3.984375 -7.269531 4.628906 -5.75 5.921875 -4.5 C 7.210938 -3.25 8.742188 -2.625 10.515625 -2.625 C 12.296875 -2.625 13.816406 -3.25 15.078125 -4.5 C 16.347656 -5.75 16.984375 -7.269531 16.984375 -9.0625 C 16.984375 -10.863281 16.347656 -12.378906 15.078125 -13.609375 C 13.816406 -14.847656 12.300781 -15.46875 10.53125 -15.46875 Z M 10.53125 -15.46875 "/></g></g></g><g fill="#2e4b68" fill-opacity="1"><g transform="translate(271.308929, 250.907285)"><g><path d="M 2.390625 -18.140625 L 9.609375 -18.140625 C 11.890625 -18.140625 13.65625 -17.597656 14.90625 -16.515625 C 16.164062 -15.441406 16.796875 -13.921875 16.796875 -11.953125 C 16.796875 -9.890625 16.164062 -8.289062 14.90625 -7.15625 C 13.65625 -6.03125 11.890625 -5.46875 9.609375 -5.46875 L 5.4375 -5.46875 L 5.4375 0 L 2.390625 0 Z M 5.4375 -15.390625 L 5.4375 -8.21875 L 9.484375 -8.21875 C 12.410156 -8.21875 13.875 -9.4375 13.875 -11.875 C 13.875 -14.21875 12.410156 -15.390625 9.484375 -15.390625 Z M 5.4375 -15.390625 "/></g></g></g></svg>